<svg version="1.1" id="Layer_1" xmlns="http://www.w3.org/2000/svg" xmlns:xlink="http://www.w3.org/1999/xlink" x="0px" y="0px"
	 width="100%" viewBox="0 0 641 417" enable-background="new 0 0 641 417" xml:space="preserve">
<path fill="#FFFFFF" opacity="1.000000" stroke="none" 
	d="
M414.000000,418.000000 
	C276.032471,418.000000 138.564926,418.000000 1.048694,418.000000 
	C1.048694,279.065308 1.048694,140.130569 1.048694,1.097920 
	C214.550903,1.097920 428.101868,1.097920 641.826416,1.097920 
	C641.826416,139.999832 641.826416,278.999908 641.826416,418.000000 
	C566.130493,418.000000 490.315247,418.000000 414.000000,418.000000 
M194.864410,217.383148 
	C198.627838,185.473480 170.924469,161.624222 141.436478,168.050156 
	C118.015785,173.153915 102.961456,196.411392 107.931084,220.247025 
	C112.805641,243.626678 136.265213,259.397461 159.286942,254.327652 
	C178.778717,250.035248 190.550537,237.741730 194.864410,217.383148 
M312.913818,206.623718 
	C317.197784,215.308334 321.481750,223.992966 326.275482,233.711044 
	C331.617798,222.972198 336.344208,213.471390 341.070618,203.970581 
	C343.219604,212.586670 344.353271,220.818848 345.460144,229.054611 
	C345.811523,231.669296 346.507111,233.677979 350.221100,231.858505 
	C348.223389,218.049194 346.222595,204.218552 344.221771,190.387924 
	C343.887970,190.368469 343.554199,190.348999 343.220398,190.329544 
	C337.708923,201.481735 332.197479,212.633911 326.338989,224.488327 
	C320.325867,212.478500 314.747681,201.337402 309.169495,190.196304 
	C308.847046,190.337357 308.524597,190.478394 308.202148,190.619446 
	C306.244110,204.400513 304.286072,218.181595 302.328308,231.960724 
	C305.891602,233.553360 306.656769,231.908554 307.005127,229.049973 
	C308.016205,220.754349 309.215881,212.481720 310.477722,203.198380 
	C311.644470,204.712097 312.112183,205.318924 312.913818,206.623718 
M374.198975,229.079025 
	C375.109192,230.260483 376.019440,231.441940 376.929657,232.623413 
	C377.593567,231.369156 378.809021,230.125259 378.832855,228.858963 
	C379.000061,219.975189 378.921417,211.086792 378.921417,202.199890 
	C379.288177,202.075790 379.654968,201.951691 380.021729,201.827591 
	C388.938660,212.082993 397.855591,222.338394 407.621704,233.570450 
	C407.621704,218.096939 407.621704,204.215454 407.621704,190.403656 
	C404.701385,189.426285 403.277405,189.998367 403.374969,193.176590 
	C403.517914,197.832458 403.410309,202.496002 403.409973,207.156281 
	C403.409607,211.660660 403.409882,216.165024 403.409882,222.137512 
	C393.293304,210.567429 384.301697,200.283936 375.310089,190.000458 
	C374.939545,190.157272 374.569031,190.314072 374.198486,190.470886 
	C374.198486,203.037033 374.198486,215.603165 374.198975,229.079025 
M271.808044,189.973648 
	C270.713654,190.783234 268.677856,191.578690 268.665466,192.404510 
	C268.466248,205.671982 268.524841,218.943344 268.524841,232.047897 
	C271.853821,233.233322 273.057404,232.391891 272.981537,229.322250 
	C272.847809,223.910172 272.944122,218.492401 272.944122,213.485367 
	C277.231781,211.898743 279.142670,213.692810 280.801605,216.653549 
	C283.318634,221.145676 286.264343,225.396255 288.827637,229.864319 
	C290.411255,232.624771 292.319061,233.351898 295.452972,231.941879 
	C291.564636,225.582825 287.853699,219.513840 284.009705,213.227310 
	C284.964508,212.789795 285.675934,212.402863 286.428406,212.128540 
	C293.201935,209.659134 295.885590,205.674805 294.934143,199.459427 
	C294.060303,193.750885 289.994202,190.465988 283.222809,190.153549 
	C279.733582,189.992523 276.235321,190.026993 271.808044,189.973648 
M222.112274,198.690567 
	C215.120544,210.898499 217.948349,222.903152 229.420059,229.713608 
	C239.296921,235.577240 253.678238,232.866394 259.157074,224.099411 
	C257.251099,220.922150 255.715836,222.622238 253.736160,224.248871 
	C243.900269,232.330688 227.597900,228.579727 223.943298,217.506866 
	C221.242416,209.323593 224.003082,201.119385 231.020065,196.476151 
	C237.908066,191.918259 247.624557,192.415436 253.765778,197.904037 
	C255.937759,199.845200 257.589325,201.195877 259.376251,197.774765 
	C251.153931,186.094254 231.053085,185.879959 222.112274,198.690567 
M429.859741,228.407516 
	C423.344330,226.645279 420.462524,222.952805 420.911591,216.400635 
	C429.789825,216.400635 438.719360,216.400635 447.586639,216.400635 
	C448.469330,207.993454 443.421967,201.419373 435.384979,199.942352 
	C426.278931,198.268845 418.467102,203.143539 416.311615,211.844437 
	C414.263397,220.112366 418.981476,229.239594 426.583649,231.716034 
	C435.180847,234.516602 443.327393,230.997177 446.348022,222.336868 
	C444.764954,222.453934 443.055725,222.762772 442.148743,223.784073 
	C439.049347,227.274048 435.434998,229.139359 429.859741,228.407516 
M511.243317,213.197342 
	C511.243317,208.939529 511.243317,204.681717 511.243317,200.423904 
	C510.673431,200.154724 510.103546,199.885544 509.533661,199.616364 
	C508.696014,200.802460 507.203888,201.951767 507.134796,203.181046 
	C506.845856,208.322464 507.100769,213.491608 506.935791,218.643539 
	C506.730804,225.045639 503.384674,228.328583 497.393280,228.316315 
	C491.443542,228.304108 488.175629,225.002945 487.980774,218.525894 
	C487.825745,213.373291 487.847931,208.213074 487.899811,203.057312 
	C487.934601,199.601685 486.205017,199.814896 483.991333,200.578201 
	C483.991333,207.575882 483.655212,214.233643 484.081604,220.842194 
	C484.549988,228.101883 489.708282,232.436157 497.066132,232.580200 
	C504.626953,232.728210 509.974670,228.340805 510.889954,221.090195 
	C511.180634,218.787506 511.133453,216.442169 511.243317,213.197342 
M452.828674,230.016174 
	C452.444336,230.700455 452.059998,231.384750 451.277100,232.778595 
	C460.201813,232.396988 460.147186,223.110870 465.512390,220.252151 
	C470.667725,223.476562 470.960571,232.228256 480.195251,232.853348 
	C475.598480,226.481689 471.834351,221.264160 468.023254,215.981522 
	C471.528900,211.016861 474.852692,206.309723 478.551666,201.071228 
	C469.904907,200.412781 470.302094,209.379898 465.334564,211.766907 
	C460.788208,208.820663 460.614685,200.888382 452.224884,200.939087 
	C455.412567,205.425873 457.958710,209.281006 460.798889,212.905701 
	C462.505127,215.083267 462.704803,216.748718 460.872314,218.989563 
	C458.137909,222.333359 455.736969,225.949905 452.828674,230.016174 
M535.892700,224.247589 
	C536.418274,220.021912 534.158447,217.343735 530.876343,215.243088 
	C528.639587,213.811523 526.110107,212.684204 524.258057,210.864594 
	C523.216553,209.841400 522.452209,207.195618 523.060791,206.167313 
	C523.849915,204.834061 526.060547,204.026291 527.795532,203.684845 
	C528.870850,203.473190 530.160889,204.746124 531.424377,204.988068 
	C532.724915,205.237076 534.110168,205.043350 535.458374,205.043350 
	C535.506592,204.521545 535.554810,203.999756 535.603088,203.477951 
	C534.425842,202.596771 533.323303,201.585846 532.057861,200.858002 
	C527.739075,198.374039 522.449890,199.409790 520.057251,203.110214 
	C517.418823,207.190720 518.595276,212.266953 522.980164,215.292297 
	C524.479431,216.326691 526.132874,217.139725 527.726868,218.034225 
	C530.675415,219.688904 533.221741,221.643616 531.400085,225.509262 
	C529.942139,228.603012 525.878418,229.263168 522.286560,227.190628 
	C521.445801,226.705490 520.673096,226.102310 519.257324,225.135849 
	C518.750671,226.531296 517.913879,228.516479 518.026733,228.572037 
	C520.919434,229.995697 523.861816,232.098236 526.897461,232.268570 
	C531.444763,232.523758 534.594299,229.638428 535.892700,224.247589 
z"/>
<path fill="#BF4969" opacity="1.000000" stroke="none" 
	d="
M194.806702,217.801224 
	C190.550537,237.741730 178.778717,250.035248 159.286942,254.327652 
	C136.265213,259.397461 112.805641,243.626678 107.931084,220.247025 
	C102.961456,196.411392 118.015785,173.153915 141.436478,168.050156 
	C170.924469,161.624222 198.627838,185.473480 194.806702,217.801224 
M127.312622,212.715607 
	C126.043777,211.552521 124.774925,210.389450 122.837456,208.613480 
	C122.837456,211.824722 122.331413,214.237335 122.957115,216.307922 
	C123.875290,219.346375 125.202492,222.611588 129.513550,222.096542 
	C129.513550,222.096542 129.520721,222.098663 128.909103,222.863190 
	C130.008255,225.935028 131.721924,226.989334 135.318314,226.405548 
	C138.489975,225.890732 141.010773,228.078476 141.073853,231.784302 
	C141.130859,235.135071 139.222839,237.283661 136.050690,237.573837 
	C132.660172,237.883987 129.612579,235.989120 130.076584,232.511887 
	C130.676758,228.014236 128.317947,225.666885 125.503944,223.375412 
	C121.883141,220.426941 119.861084,216.983154 120.757957,212.175644 
	C121.798729,206.596848 118.790039,203.242706 114.415741,200.451172 
	C109.632225,216.591339 116.134850,234.326859 129.879425,243.115463 
	C144.620514,252.541275 163.989517,251.124283 176.694290,239.690582 
	C189.262360,228.379913 193.010468,209.943939 185.789734,194.952286 
	C178.525787,179.870850 162.613220,170.842712 147.360275,173.539383 
	C150.333710,175.999268 151.672165,179.752930 156.759491,178.700348 
	C160.050156,178.019501 162.367813,180.829346 162.370087,184.293900 
	C162.372330,187.697327 160.493057,190.053024 156.820969,190.037048 
	C152.951965,190.020233 151.122070,187.667679 151.044067,183.960403 
	C150.891525,176.708740 144.895508,172.406448 138.198578,174.906616 
	C136.076218,175.698944 134.068756,176.799103 130.803604,178.319550 
	C134.316879,181.487061 137.371826,183.820267 139.897125,186.629562 
	C142.756424,189.810455 145.808609,191.421951 150.253357,191.162811 
	C152.164551,191.051392 154.403580,192.638992 156.110352,193.952713 
	C158.175034,195.541946 159.510422,197.502899 162.898392,196.847214 
	C166.604309,196.130020 168.932037,198.797974 168.872879,202.495651 
	C168.818466,205.897858 166.735428,208.125458 163.106567,208.037048 
	C159.164398,207.940979 157.562531,205.410370 157.559937,201.763199 
	C157.556641,197.124893 154.145065,192.741180 149.858551,193.144028 
	C144.774002,193.621857 141.371140,191.633728 138.303421,187.957962 
	C136.177353,185.410507 133.677338,183.162521 131.230530,180.904114 
	C130.605774,180.327469 129.548477,180.219406 128.689926,179.896057 
	C128.406525,180.315445 128.123138,180.734818 127.839737,181.154205 
	C140.617035,193.777161 153.364532,206.430771 166.243118,218.949539 
	C167.044189,219.728226 168.888062,219.690277 170.223236,219.614944 
	C174.106476,219.395767 176.265381,221.324722 176.784256,224.928726 
	C177.249664,228.161194 174.284836,231.103180 171.008820,231.079025 
	C167.452545,231.052795 165.346451,228.290665 165.378876,224.337448 
	C165.391678,222.774475 164.934067,220.748688 163.906693,219.706329 
	C152.211319,207.840363 140.372803,196.115265 128.537903,184.387482 
	C127.757050,183.613678 126.694252,183.124390 125.762589,182.502762 
	C125.428246,182.895798 125.093895,183.288818 124.759552,183.681839 
	C126.552025,185.487610 128.529907,187.149826 130.075668,189.146591 
	C131.219528,190.624207 132.678024,192.651276 132.471939,194.235245 
	C131.798248,199.413193 134.266464,202.695724 137.809219,205.806168 
	C140.557800,208.219376 143.069702,210.911636 145.593262,213.568710 
	C147.685013,215.771133 149.581528,217.507782 153.211334,217.024902 
	C156.749161,216.554260 159.165253,219.538696 158.555542,222.670135 
	C158.152954,224.737869 155.389603,227.217819 153.199722,227.857162 
	C150.073944,228.769775 146.947723,226.030792 147.559448,223.207367 
	C148.587158,218.463959 145.520126,216.627243 143.140976,214.112778 
	C139.706436,210.482864 136.005722,207.096130 132.703888,203.353912 
	C131.508392,201.998962 130.315826,199.811493 130.529312,198.189102 
	C131.384583,191.689651 127.400551,188.638672 121.488388,184.671127 
	C121.994110,191.030014 123.001663,196.211838 122.648972,201.299393 
	C122.271011,206.751526 126.888069,208.433701 128.789688,212.414902 
	C128.495529,212.622665 128.201370,212.830429 127.312622,212.715607 
M154.149918,219.054306 
	C152.544418,220.044052 150.746719,220.847565 149.474670,222.160385 
	C149.173660,222.471039 150.385162,225.202927 151.354584,225.548569 
	C152.585602,225.987488 155.474182,225.315582 155.555267,224.796021 
	C155.827942,223.048920 155.171799,221.156876 154.149918,219.054306 
M168.108780,227.512253 
	C169.972900,227.608307 171.890839,227.971222 173.663452,227.613632 
	C174.109085,227.523727 174.699738,224.689362 174.132751,223.892670 
	C173.370728,222.821915 170.648163,221.677124 170.342346,222.010223 
	C169.141953,223.317764 168.559998,225.193085 168.108780,227.512253 
M120.796700,199.729584 
	C120.594322,196.816895 120.391945,193.904205 120.189568,190.991516 
	C119.644173,190.942795 119.098785,190.894073 118.553398,190.845367 
	C117.628036,192.685852 115.768387,194.664993 116.015709,196.331436 
	C116.319412,198.377808 118.383163,200.162979 119.686096,202.061050 
	C120.056122,201.536942 120.426140,201.012817 120.796700,199.729584 
M160.043686,204.034546 
	C161.857681,204.397842 163.693298,205.059265 165.471619,204.930344 
	C165.961456,204.894836 166.977036,202.100113 166.508896,201.285858 
	C165.860580,200.158325 163.518219,198.776855 162.827347,199.162643 
	C161.475327,199.917572 160.764038,201.819992 160.043686,204.034546 
M158.221039,181.043060 
	C156.529205,181.880219 154.694275,182.541626 153.266998,183.703720 
	C152.983658,183.934402 153.942719,186.610641 154.912506,187.201965 
	C155.880798,187.792389 158.678879,187.444275 158.772766,187.052139 
	C159.196854,185.281189 158.946503,183.348740 158.221039,181.043060 
M132.578720,234.002625 
	C134.649734,235.927795 136.982880,236.149460 138.372757,233.657242 
	C138.982330,232.564178 138.130142,230.371826 137.402969,228.955170 
	C137.106201,228.377029 134.706528,228.049011 134.426239,228.440201 
	C133.400558,229.871704 132.864227,231.653793 132.578720,234.002625 
z"/>
<path fill="#C04969" opacity="1.000000" stroke="none" 
	d="
M312.746887,206.274734 
	C312.112183,205.318924 311.644470,204.712097 310.477722,203.198380 
	C309.215881,212.481720 308.016205,220.754349 307.005127,229.049973 
	C306.656769,231.908554 305.891602,233.553360 302.328308,231.960724 
	C304.286072,218.181595 306.244110,204.400513 308.202148,190.619446 
	C308.524597,190.478394 308.847046,190.337357 309.169495,190.196304 
	C314.747681,201.337402 320.325867,212.478500 326.338989,224.488327 
	C332.197479,212.633911 337.708923,201.481735 343.220398,190.329544 
	C343.554199,190.348999 343.887970,190.368469 344.221771,190.387924 
	C346.222595,204.218552 348.223389,218.049194 350.221100,231.858505 
	C346.507111,233.677979 345.811523,231.669296 345.460144,229.054611 
	C344.353271,220.818848 343.219604,212.586670 341.070618,203.970581 
	C336.344208,213.471390 331.617798,222.972198 326.275482,233.711044 
	C321.481750,223.992966 317.197784,215.308334 312.746887,206.274734 
z"/>
<path fill="#C14D6C" opacity="1.000000" stroke="none" 
	d="
M374.198730,228.624176 
	C374.198486,215.603165 374.198486,203.037033 374.198486,190.470886 
	C374.569031,190.314072 374.939545,190.157272 375.310089,190.000458 
	C384.301697,200.283936 393.293304,210.567429 403.409882,222.137512 
	C403.409882,216.165024 403.409607,211.660660 403.409973,207.156281 
	C403.410309,202.496002 403.517914,197.832458 403.374969,193.176590 
	C403.277405,189.998367 404.701385,189.426285 407.621704,190.403656 
	C407.621704,204.215454 407.621704,218.096939 407.621704,233.570450 
	C397.855591,222.338394 388.938660,212.082993 380.021729,201.827591 
	C379.654968,201.951691 379.288177,202.075790 378.921417,202.199890 
	C378.921417,211.086792 379.000061,219.975189 378.832855,228.858963 
	C378.809021,230.125259 377.593567,231.369156 376.929688,232.623413 
	C376.019440,231.441940 375.109192,230.260483 374.198730,228.624176 
z"/>
<path fill="#BF4767" opacity="1.000000" stroke="none" 
	d="
M272.274597,189.973389 
	C276.235321,190.026993 279.733582,189.992523 283.222809,190.153549 
	C289.994202,190.465988 294.060303,193.750885 294.934143,199.459427 
	C295.885590,205.674805 293.201935,209.659134 286.428406,212.128540 
	C285.675934,212.402863 284.964508,212.789795 284.009705,213.227310 
	C287.853699,219.513840 291.564636,225.582825 295.452972,231.941879 
	C292.319061,233.351898 290.411255,232.624771 288.827637,229.864319 
	C286.264343,225.396255 283.318634,221.145676 280.801605,216.653549 
	C279.142670,213.692810 277.231781,211.898743 272.944122,213.485367 
	C272.944122,218.492401 272.847809,223.910172 272.981537,229.322250 
	C273.057404,232.391891 271.853821,233.233322 268.524841,232.047897 
	C268.524841,218.943344 268.466248,205.671982 268.665466,192.404510 
	C268.677856,191.578690 270.713654,190.783234 272.274597,189.973389 
M284.852112,207.999298 
	C289.045807,207.261536 290.859619,204.419846 290.593201,200.528275 
	C290.309723,196.387894 287.355652,194.463470 283.461365,194.220078 
	C280.049774,194.006851 276.614258,194.175568 272.937134,194.175568 
	C272.937134,196.859222 272.937134,199.007217 272.937134,201.155212 
	C272.937134,203.432556 272.937134,205.709900 272.937134,208.087112 
	C277.043640,208.087112 280.511078,208.087112 284.852112,207.999298 
z"/>
<path fill="#BF4868" opacity="1.000000" stroke="none" 
	d="
M222.344315,198.410522 
	C231.053085,185.879959 251.153931,186.094254 259.376251,197.774765 
	C257.589325,201.195877 255.937759,199.845200 253.765778,197.904037 
	C247.624557,192.415436 237.908066,191.918259 231.020065,196.476151 
	C224.003082,201.119385 221.242416,209.323593 223.943298,217.506866 
	C227.597900,228.579727 243.900269,232.330688 253.736160,224.248871 
	C255.715836,222.622238 257.251099,220.922150 259.157227,224.103806 
	C253.678238,232.866394 239.296921,235.577240 229.420059,229.713608 
	C217.948349,222.903152 215.120544,210.898499 222.344315,198.410522 
z"/>
<path fill="#BE4565" opacity="1.000000" stroke="none" 
	d="
M430.286469,228.482056 
	C435.434998,229.139359 439.049347,227.274048 442.148743,223.784073 
	C443.055725,222.762772 444.764954,222.453934 446.348022,222.336868 
	C443.327393,230.997177 435.180847,234.516602 426.583649,231.716034 
	C418.981476,229.239594 414.263397,220.112366 416.311615,211.844437 
	C418.467102,203.143539 426.278931,198.268845 435.384979,199.942352 
	C443.421967,201.419373 448.469330,207.993454 447.586639,216.400635 
	C438.719360,216.400635 429.789825,216.400635 420.911591,216.400635 
	C420.462524,222.952805 423.344330,226.645279 430.286469,228.482056 
M438.913116,205.475555 
	C430.450714,201.024765 421.952271,204.508499 421.508453,212.470734 
	C428.675995,212.470734 435.845551,212.470734 444.377411,212.470734 
	C442.318756,209.703247 440.918915,207.821426 438.913116,205.475555 
z"/>
<path fill="#BF4666" opacity="1.000000" stroke="none" 
	d="
M511.242096,213.656845 
	C511.133453,216.442169 511.180634,218.787506 510.889954,221.090195 
	C509.974670,228.340805 504.626953,232.728210 497.066132,232.580200 
	C489.708282,232.436157 484.549988,228.101883 484.081604,220.842194 
	C483.655212,214.233643 483.991333,207.575882 483.991333,200.578201 
	C486.205017,199.814896 487.934601,199.601685 487.899811,203.057312 
	C487.847931,208.213074 487.825745,213.373291 487.980774,218.525894 
	C488.175629,225.002945 491.443542,228.304108 497.393280,228.316315 
	C503.384674,228.328583 506.730804,225.045639 506.935791,218.643539 
	C507.100769,213.491608 506.845856,208.322464 507.134796,203.181046 
	C507.203888,201.951767 508.696014,200.802460 509.533661,199.616364 
	C510.103546,199.885544 510.673431,200.154724 511.243317,200.423904 
	C511.243317,204.681717 511.243317,208.939529 511.242096,213.656845 
z"/>
<path fill="#C04A69" opacity="1.000000" stroke="none" 
	d="
M453.011414,229.733307 
	C455.736969,225.949905 458.137909,222.333359 460.872314,218.989563 
	C462.704803,216.748718 462.505127,215.083267 460.798889,212.905701 
	C457.958710,209.281006 455.412567,205.425873 452.224884,200.939087 
	C460.614685,200.888382 460.788208,208.820663 465.334564,211.766907 
	C470.302094,209.379898 469.904907,200.412781 478.551666,201.071228 
	C474.852692,206.309723 471.528900,211.016861 468.023254,215.981522 
	C471.834351,221.264160 475.598480,226.481689 480.195251,232.853348 
	C470.960571,232.228256 470.667725,223.476562 465.512390,220.252151 
	C460.147186,223.110870 460.201813,232.396988 451.277100,232.778595 
	C452.059998,231.384750 452.444336,230.700455 453.011414,229.733307 
z"/>
<path fill="#BF4767" opacity="1.000000" stroke="none" 
	d="
M535.830078,224.635925 
	C534.594299,229.638428 531.444763,232.523758 526.897461,232.268570 
	C523.861816,232.098236 520.919434,229.995697 518.026733,228.572037 
	C517.913879,228.516479 518.750671,226.531296 519.257324,225.135849 
	C520.673096,226.102310 521.445801,226.705490 522.286560,227.190628 
	C525.878418,229.263168 529.942139,228.603012 531.400085,225.509262 
	C533.221741,221.643616 530.675415,219.688904 527.726868,218.034225 
	C526.132874,217.139725 524.479431,216.326691 522.980164,215.292297 
	C518.595276,212.266953 517.418823,207.190720 520.057251,203.110214 
	C522.449890,199.409790 527.739075,198.374039 532.057861,200.858002 
	C533.323303,201.585846 534.425842,202.596771 535.603088,203.477951 
	C535.554810,203.999756 535.506592,204.521545 535.458374,205.043350 
	C534.110168,205.043350 532.724915,205.237076 531.424377,204.988068 
	C530.160889,204.746124 528.870850,203.473190 527.795532,203.684845 
	C526.060547,204.026291 523.849915,204.834061 523.060791,206.167313 
	C522.452209,207.195618 523.216553,209.841400 524.258057,210.864594 
	C526.110107,212.684204 528.639587,213.811523 530.876343,215.243088 
	C534.158447,217.343735 536.418274,220.021912 535.830078,224.635925 
z"/>
<path fill="#FDF9FA" opacity="1.000000" stroke="none" 
	d="
M129.040344,211.928268 
	C126.888069,208.433701 122.271011,206.751526 122.648972,201.299393 
	C123.001663,196.211838 121.994110,191.030014 121.488388,184.671127 
	C127.400551,188.638672 131.384583,191.689651 130.529312,198.189102 
	C130.315826,199.811493 131.508392,201.998962 132.703888,203.353912 
	C136.005722,207.096130 139.706436,210.482864 143.140976,214.112778 
	C145.520126,216.627243 148.587158,218.463959 147.559448,223.207367 
	C146.947723,226.030792 150.073944,228.769775 153.199722,227.857162 
	C155.389603,227.217819 158.152954,224.737869 158.555542,222.670135 
	C159.165253,219.538696 156.749161,216.554260 153.211334,217.024902 
	C149.581528,217.507782 147.685013,215.771133 145.593262,213.568710 
	C143.069702,210.911636 140.557800,208.219376 137.809219,205.806168 
	C134.266464,202.695724 131.798248,199.413193 132.471939,194.235245 
	C132.678024,192.651276 131.219528,190.624207 130.075668,189.146591 
	C128.529907,187.149826 126.552025,185.487610 124.759552,183.681839 
	C125.093895,183.288818 125.428246,182.895798 125.762589,182.502762 
	C126.694252,183.124390 127.757050,183.613678 128.537903,184.387482 
	C140.372803,196.115265 152.211319,207.840363 163.906693,219.706329 
	C164.934067,220.748688 165.391678,222.774475 165.378876,224.337448 
	C165.346451,228.290665 167.452545,231.052795 171.008820,231.079025 
	C174.284836,231.103180 177.249664,228.161194 176.784256,224.928726 
	C176.265381,221.324722 174.106476,219.395767 170.223236,219.614944 
	C168.888062,219.690277 167.044189,219.728226 166.243118,218.949539 
	C153.364532,206.430771 140.617035,193.777161 127.839737,181.154205 
	C128.123138,180.734818 128.406525,180.315445 128.689926,179.896057 
	C129.548477,180.219406 130.605774,180.327469 131.230530,180.904114 
	C133.677338,183.162521 136.177353,185.410507 138.303421,187.957962 
	C141.371140,191.633728 144.774002,193.621857 149.858551,193.144028 
	C154.145065,192.741180 157.556641,197.124893 157.559937,201.763199 
	C157.562531,205.410370 159.164398,207.940979 163.106567,208.037048 
	C166.735428,208.125458 168.818466,205.897858 168.872879,202.495651 
	C168.932037,198.797974 166.604309,196.130020 162.898392,196.847214 
	C159.510422,197.502899 158.175034,195.541946 156.110352,193.952713 
	C154.403580,192.638992 152.164551,191.051392 150.253357,191.162811 
	C145.808609,191.421951 142.756424,189.810455 139.897125,186.629562 
	C137.371826,183.820267 134.316879,181.487061 130.803604,178.319550 
	C134.068756,176.799103 136.076218,175.698944 138.198578,174.906616 
	C144.895508,172.406448 150.891525,176.708740 151.044067,183.960403 
	C151.122070,187.667679 152.951965,190.020233 156.820969,190.037048 
	C160.493057,190.053024 162.372330,187.697327 162.370087,184.293900 
	C162.367813,180.829346 160.050156,178.019501 156.759491,178.700348 
	C151.672165,179.752930 150.333710,175.999268 147.360275,173.539383 
	C162.613220,170.842712 178.525787,179.870850 185.789734,194.952286 
	C193.010468,209.943939 189.262360,228.379913 176.694290,239.690582 
	C163.989517,251.124283 144.620514,252.541275 129.879425,243.115463 
	C116.134850,234.326859 109.632225,216.591339 114.415741,200.451172 
	C118.790039,203.242706 121.798729,206.596848 120.757957,212.175644 
	C119.861084,216.983154 121.883141,220.426941 125.503944,223.375412 
	C128.317947,225.666885 130.676758,228.014236 130.076584,232.511887 
	C129.612579,235.989120 132.660172,237.883987 136.050690,237.573837 
	C139.222839,237.283661 141.130859,235.135071 141.073853,231.784302 
	C141.010773,228.078476 138.489975,225.890732 135.318314,226.405548 
	C131.721924,226.989334 130.008255,225.935028 129.581573,222.726349 
	C132.845261,222.533539 135.933563,223.299164 137.855225,222.136520 
	C139.164597,221.344315 139.690506,217.579422 139.057617,215.634918 
	C138.022705,212.455276 135.197266,211.374695 131.727722,212.704025 
	C131.032990,212.970200 129.946304,212.213394 129.040344,211.928268 
z"/>
<path fill="#C65B78" opacity="1.000000" stroke="none" 
	d="
M128.915009,212.171585 
	C129.946304,212.213394 131.032990,212.970200 131.727722,212.704025 
	C135.197266,211.374695 138.022705,212.455276 139.057617,215.634918 
	C139.690506,217.579422 139.164597,221.344315 137.855225,222.136520 
	C135.933563,223.299164 132.845261,222.533539 129.887375,222.344086 
	C129.520721,222.098663 129.513550,222.096542 129.373047,221.715927 
	C128.790771,218.569611 128.348984,215.803909 127.907211,213.038208 
	C128.201370,212.830429 128.495529,212.622665 128.915009,212.171585 
M137.541428,216.986481 
	C136.232773,214.648361 134.435196,213.246399 132.079926,215.396378 
	C131.206879,216.193329 130.660233,218.193802 131.035248,219.273636 
	C131.408936,220.349731 133.706528,221.882065 134.145355,221.605194 
	C135.594666,220.690842 136.584991,219.048965 137.541428,216.986481 
z"/>
<path fill="#FDF9FA" opacity="1.000000" stroke="none" 
	d="
M127.609917,212.876907 
	C128.348984,215.803909 128.790771,218.569611 129.384750,221.684845 
	C125.202492,222.611588 123.875290,219.346375 122.957115,216.307922 
	C122.331413,214.237335 122.837456,211.824722 122.837456,208.613480 
	C124.774925,210.389450 126.043777,211.552521 127.609917,212.876907 
z"/>
<path fill="#FBF4F6" opacity="1.000000" stroke="none" 
	d="
M154.510483,219.187286 
	C155.171799,221.156876 155.827942,223.048920 155.555267,224.796021 
	C155.474182,225.315582 152.585602,225.987488 151.354584,225.548569 
	C150.385162,225.202927 149.173660,222.471039 149.474670,222.160385 
	C150.746719,220.847565 152.544418,220.044052 154.510483,219.187286 
z"/>
<path fill="#FBF4F6" opacity="1.000000" stroke="none" 
	d="
M167.928558,227.184891 
	C168.559998,225.193085 169.141953,223.317764 170.342346,222.010223 
	C170.648163,221.677124 173.370728,222.821915 174.132751,223.892670 
	C174.699738,224.689362 174.109085,227.523727 173.663452,227.613632 
	C171.890839,227.971222 169.972900,227.608307 167.928558,227.184891 
z"/>
<path fill="#F7E7EB" opacity="1.000000" stroke="none" 
	d="
M120.796432,200.109146 
	C120.426140,201.012817 120.056122,201.536942 119.686096,202.061050 
	C118.383163,200.162979 116.319412,198.377808 116.015709,196.331436 
	C115.768387,194.664993 117.628036,192.685852 118.553398,190.845367 
	C119.098785,190.894073 119.644173,190.942795 120.189568,190.991516 
	C120.391945,193.904205 120.594322,196.816895 120.796432,200.109146 
z"/>
<path fill="#FBF4F6" opacity="1.000000" stroke="none" 
	d="
M159.915604,203.640991 
	C160.764038,201.819992 161.475327,199.917572 162.827347,199.162643 
	C163.518219,198.776855 165.860580,200.158325 166.508896,201.285858 
	C166.977036,202.100113 165.961456,204.894836 165.471619,204.930344 
	C163.693298,205.059265 161.857681,204.397842 159.915604,203.640991 
z"/>
<path fill="#FBF4F6" opacity="1.000000" stroke="none" 
	d="
M158.580078,181.258759 
	C158.946503,183.348740 159.196854,185.281189 158.772766,187.052139 
	C158.678879,187.444275 155.880798,187.792389 154.912506,187.201965 
	C153.942719,186.610641 152.983658,183.934402 153.266998,183.703720 
	C154.694275,182.541626 156.529205,181.880219 158.580078,181.258759 
z"/>
<path fill="#FDF9FA" opacity="1.000000" stroke="none" 
	d="
M132.361145,233.653229 
	C132.864227,231.653793 133.400558,229.871704 134.426239,228.440201 
	C134.706528,228.049011 137.106201,228.377029 137.402969,228.955170 
	C138.130142,230.371826 138.982330,232.564178 138.372757,233.657242 
	C136.982880,236.149460 134.649734,235.927795 132.361145,233.653229 
z"/>
<path fill="#FEFCFD" opacity="1.000000" stroke="none" 
	d="
M284.415283,208.043213 
	C280.511078,208.087112 277.043640,208.087112 272.937134,208.087112 
	C272.937134,205.709900 272.937134,203.432556 272.937134,201.155212 
	C272.937134,199.007217 272.937134,196.859222 272.937134,194.175568 
	C276.614258,194.175568 280.049774,194.006851 283.461365,194.220078 
	C287.355652,194.463470 290.309723,196.387894 290.593201,200.528275 
	C290.859619,204.419846 289.045807,207.261536 284.415283,208.043213 
z"/>
<path fill="#FBF4F6" opacity="1.000000" stroke="none" 
	d="
M439.216125,205.707581 
	C440.918915,207.821426 442.318756,209.703247 444.377411,212.470734 
	C435.845551,212.470734 428.675995,212.470734 421.508453,212.470734 
	C421.952271,204.508499 430.450714,201.024765 439.216125,205.707581 
z"/>
<path fill="#FBF4F6" opacity="1.000000" stroke="none" 
	d="
M137.646454,217.336426 
	C136.584991,219.048965 135.594666,220.690842 134.145355,221.605194 
	C133.706528,221.882065 131.408936,220.349731 131.035248,219.273636 
	C130.660233,218.193802 131.206879,216.193329 132.079926,215.396378 
	C134.435196,213.246399 136.232773,214.648361 137.646454,217.336426 
z"/>
</svg>