<?xml version="1.0" standalone="no"?>
<!DOCTYPE svg PUBLIC "-//W3C//DTD SVG 20010904//EN"
 "http://www.w3.org/TR/2001/REC-SVG-20010904/DTD/svg10.dtd">
<svg version="1.0" xmlns="http://www.w3.org/2000/svg"
 width="300.000000pt" height="47.000000pt" viewBox="0 0 300.000000 47.000000"
 preserveAspectRatio="xMidYMid meet">
<metadata>
Created by potrace 1.10, written by Peter Selinger 2001-2011
</metadata>
<g transform="translate(0.000000,47.000000) scale(0.100000,-0.100000)"
fill="#000000" stroke="none">
<path d="M156 415 c-135 -48 -177 -238 -74 -331 35 -33 84 -55 136 -60 82 -10
217 55 183 89 -8 8 -16 8 -25 2 -58 -43 -73 -49 -126 -53 -107 -8 -184 57
-184 153 0 66 25 115 77 149 37 24 50 27 103 24 57 -4 70 -9 130 -53 9 -6 17
-6 25 2 9 9 7 17 -12 33 -64 56 -153 74 -233 45z"/>
<path d="M1120 271 c-41 -86 -77 -160 -82 -165 -4 -5 -42 64 -84 152 -42 89
-80 162 -84 162 -3 0 -17 -78 -29 -172 -13 -95 -25 -185 -28 -200 -5 -23 -2
-28 14 -28 18 0 22 15 39 148 l20 147 72 -148 c41 -85 76 -146 82 -142 5 3 10
10 10 15 0 20 130 272 133 259 3 -8 10 -61 17 -119 17 -151 19 -160 43 -160
16 0 19 5 14 28 -3 15 -15 99 -27 187 -12 88 -25 167 -29 176 -4 11 -31 -36
-81 -140z"/>
<path d="M490 219 c0 -199 0 -200 21 -197 21 3 22 8 20 96 l-2 92 28 0 c25 0
35 -12 86 -95 48 -77 63 -95 82 -95 23 0 21 5 -35 94 -32 52 -56 97 -52 100 3
3 15 6 28 6 30 0 74 54 74 91 0 41 -23 83 -55 97 -14 7 -64 12 -110 12 l-85 0
0 -201z m192 144 c22 -19 23 -62 4 -88 -10 -15 -31 -21 -81 -25 -36 -3 -68 -4
-71 -1 -2 2 -4 36 -4 74 l0 70 67 -7 c39 -4 75 -14 85 -23z"/>
<path d="M1482 220 l-3 -200 27 0 26 0 -3 150 c-2 83 -1 149 3 148 6 -3 196
-223 238 -275 10 -13 21 -23 24 -23 3 0 6 90 6 200 0 192 -1 200 -20 200 -18
0 -20 -8 -22 -151 l-3 -152 -130 152 c-71 83 -132 151 -135 151 -3 0 -7 -90
-8 -200z"/>
<path d="M1950 314 c-112 -70 -91 -251 32 -282 68 -17 125 1 170 53 14 16 14
22 4 33 -11 11 -19 7 -48 -22 -30 -30 -43 -36 -80 -36 -50 0 -82 18 -103 60
-30 59 -28 60 121 60 l136 0 -7 28 c-19 77 -77 122 -155 122 -25 0 -56 -8 -70
-16z m160 -61 l35 -38 -110 -5 c-61 -3 -112 -1 -113 3 -7 15 30 59 61 73 46
20 87 10 127 -33z"/>
<path d="M2512 216 c2 -97 6 -119 24 -143 47 -64 160 -64 206 0 20 28 23 47
27 145 3 108 2 112 -18 112 -20 0 -21 -5 -21 -104 0 -98 -2 -106 -26 -135 -34
-41 -92 -44 -129 -6 -24 23 -25 31 -25 135 0 105 -1 110 -21 110 -20 0 -21 -4
-17 -114z"/>
<path d="M2860 308 c-24 -26 -27 -80 -4 -102 8 -9 35 -28 60 -42 35 -20 44
-32 44 -53 0 -15 -5 -32 -12 -39 -17 -17 -58 -15 -79 4 -19 17 -39 12 -39 -10
0 -12 24 -28 63 -40 33 -11 84 19 96 57 16 47 0 80 -54 111 -53 32 -68 50 -60
75 9 28 41 36 71 16 20 -13 28 -14 40 -5 12 10 10 15 -10 31 -33 26 -90 25
-116 -3z"/>
<path d="M2264 251 l57 -71 -56 -73 c-30 -41 -55 -77 -55 -80 0 -4 9 -7 20 -7
13 0 34 22 64 66 l43 65 47 -65 c30 -43 54 -66 67 -66 10 0 19 2 19 5 0 3 -25
39 -56 80 l-56 75 51 65 c28 35 51 67 51 70 0 3 -10 5 -22 5 -17 0 -33 -15
-58 -55 -19 -30 -38 -53 -42 -52 -3 1 -22 25 -41 52 -25 36 -41 51 -61 53 -27
3 -26 1 28 -67z"/>
</g>
</svg>
