<?xml version="1.0" standalone="no"?>
<!DOCTYPE svg PUBLIC "-//W3C//DTD SVG 20010904//EN"
 "http://www.w3.org/TR/2001/REC-SVG-20010904/DTD/svg10.dtd">
<svg version="1.0" xmlns="http://www.w3.org/2000/svg"
 width="230.000000pt" height="229.000000pt" viewBox="0 0 230.000000 229.000000"
 preserveAspectRatio="xMidYMid meet">
<metadata>
Created by potrace 1.16, written by Peter Selinger 2001-2019
</metadata>
<g transform="translate(0.000000,229.000000) scale(0.100000,-0.100000)"
fill="#000000" stroke="none">
<path d="M1103 2020 c-368 -52 -667 -318 -764 -681 -28 -104 -31 -303 -7 -414
102 -458 530 -769 987 -717 426 49 747 360 811 787 32 211 -40 489 -171 663
-167 221 -418 354 -692 366 -56 3 -130 1 -164 -4z m214 -111 c111 -15 176 -35
273 -85 154 -79 271 -197 346 -349 63 -128 85 -224 86 -365 0 -135 -21 -230
-77 -341 -50 -100 -89 -155 -159 -223 -155 -151 -346 -229 -561 -229 -313 0
-574 163 -716 446 -84 165 -105 399 -53 571 5 15 17 7 75 -50 l69 -68 0 -131
0 -130 101 -101 101 -102 -12 -36 c-25 -77 28 -146 113 -146 54 0 91 26 107
76 31 92 -59 177 -152 145 -33 -12 -33 -12 -130 87 l-98 99 0 104 0 103 75
-74 c49 -49 71 -78 65 -84 -16 -16 -12 -99 6 -125 23 -32 78 -53 119 -45 71
13 114 99 81 162 -26 51 -57 66 -124 59 l-58 -6 -82 82 -82 82 0 150 c0 146 0
149 -26 176 l-25 27 32 36 32 37 79 -78 78 -78 0 -95 0 -95 184 -184 c169
-169 184 -186 175 -208 -39 -104 63 -199 161 -148 37 19 60 62 60 111 0 28 -8
44 -34 70 -28 28 -41 34 -77 34 -24 0 -51 -5 -59 -10 -12 -7 -54 29 -192 168
l-178 177 0 95 0 95 -85 85 -86 86 21 19 c21 19 22 18 437 -397 l415 -415 -12
-37 c-14 -45 -1 -92 36 -127 36 -34 112 -34 148 0 39 37 52 88 33 133 -23 55
-56 72 -126 65 l-58 -5 -412 412 c-412 412 -412 412 -391 431 21 19 21 18 168
-128 l147 -147 90 0 91 0 63 -64 c55 -56 62 -66 52 -84 -24 -46 -4 -115 43
-146 14 -9 44 -16 67 -16 33 0 47 6 75 34 29 29 34 41 34 81 0 40 -5 52 -35
82 -35 35 -37 36 -95 30 l-60 -7 -69 65 -68 65 -89 0 -89 0 -135 135 c-74 74
-132 136 -129 139 16 16 161 77 207 87 l55 11 77 -77 78 -77 -5 -59 c-7 -70
10 -103 63 -125 47 -20 95 -9 131 28 23 24 28 38 28 78 0 81 -67 131 -147 110
l-41 -12 -63 63 c-35 35 -64 67 -64 71 0 4 19 9 43 11 23 2 45 4 49 5 4 1 42
-3 85 -9z m78 -184 c49 -48 15 -135 -53 -135 -39 0 -82 41 -82 78 0 39 43 82
82 82 17 0 39 -10 53 -25z m-795 -332 c0 -62 -3 -113 -7 -113 -13 0 -113 104
-113 117 0 8 16 45 36 84 l35 71 25 -23 c23 -21 24 -29 24 -136z m939 -49 c26
-33 27 -64 1 -97 -26 -33 -63 -41 -99 -23 -32 17 -41 34 -41 77 0 67 97 97
139 43z m-615 -315 c19 -15 26 -29 26 -57 0 -99 -137 -113 -156 -16 -4 24 0
37 21 62 32 38 70 42 109 11z m389 -89 c61 -48 30 -139 -49 -140 -72 0 -103
88 -48 138 31 27 63 28 97 2z m360 -52 c52 -27 62 -83 22 -123 -48 -49 -135
-15 -135 52 1 31 15 54 45 71 26 15 41 15 68 0z m-716 -150 c39 -36 30 -99
-18 -123 -39 -21 -53 -19 -88 11 -37 31 -41 69 -10 108 27 34 82 36 116 4z"/>
</g>
</svg>
